<svg xmlns="http://www.w3.org/2000/svg" xmlns:xlink="http://www.w3.org/1999/xlink" width="1080" zoomAndPan="magnify" viewBox="0 0 810 809.999993" height="1080" preserveAspectRatio="xMidYMid meet" version="1.0"><defs><clipPath id="66efd03a9d"><path d="M 75 0 L 735 0 C 776.421875 0 810 33.578125 810 75 L 810 735 C 810 776.421875 776.421875 810 735 810 L 75 810 C 33.578125 810 0 776.421875 0 735 L 0 75 C 0 33.578125 33.578125 0 75 0 Z M 75 0 " clip-rule="nonzero"/></clipPath><clipPath id="bcf5e9dca6"><path d="M 0 0 L 810 0 L 810 810 L 0 810 Z M 0 0 " clip-rule="nonzero"/></clipPath><clipPath id="08123415b8"><path d="M 75 0 L 735 0 C 776.421875 0 810 33.578125 810 75 L 810 735 C 810 776.421875 776.421875 810 735 810 L 75 810 C 33.578125 810 0 776.421875 0 735 L 0 75 C 0 33.578125 33.578125 0 75 0 Z M 75 0 " clip-rule="nonzero"/></clipPath><clipPath id="e2efd5e213"><rect x="0" width="810" y="0" height="810"/></clipPath><clipPath id="18454ec7ac"><path d="M 0 94.347656 L 711.078125 -3.277344 L 809.828125 715.976562 L 98.75 813.601562 Z M 0 94.347656 " clip-rule="nonzero"/></clipPath><clipPath id="cf85095585"><path d="M 587 464 L 767 464 L 767 591 L 587 591 Z M 587 464 " clip-rule="nonzero"/></clipPath><clipPath id="1e38dfa580"><path d="M 0 94.347656 L 711.078125 -3.277344 L 809.828125 715.976562 L 98.75 813.601562 Z M 0 94.347656 " clip-rule="nonzero"/></clipPath><clipPath id="ce297d6afa"><path d="M 711.289062 -3.304688 L 0.210938 94.320312 L 98.957031 813.574219 L 810.039062 715.945312 Z M 711.289062 -3.304688 " clip-rule="nonzero"/></clipPath><clipPath id="05910020fa"><path d="M 582 417 L 730 417 L 730 581 L 582 581 Z M 582 417 " clip-rule="nonzero"/></clipPath><clipPath id="2a8cca29cf"><path d="M 0 94.347656 L 711.078125 -3.277344 L 809.828125 715.976562 L 98.75 813.601562 Z M 0 94.347656 " clip-rule="nonzero"/></clipPath><clipPath id="9d252f93a1"><path d="M 711.289062 -3.304688 L 0.210938 94.320312 L 98.957031 813.574219 L 810.039062 715.945312 Z M 711.289062 -3.304688 " clip-rule="nonzero"/></clipPath><clipPath id="8305e41f05"><path d="M 552 574 L 590 574 L 590 615 L 552 615 Z M 552 574 " clip-rule="nonzero"/></clipPath><clipPath id="b341f24671"><path d="M 0 94.347656 L 711.078125 -3.277344 L 809.828125 715.976562 L 98.75 813.601562 Z M 0 94.347656 " clip-rule="nonzero"/></clipPath><clipPath id="ad7e7bc51a"><path d="M 711.289062 -3.304688 L 0.210938 94.320312 L 98.957031 813.574219 L 810.039062 715.945312 Z M 711.289062 -3.304688 " clip-rule="nonzero"/></clipPath><clipPath id="9ddfab1c8a"><path d="M 72 434 L 567 434 L 567 796 L 72 796 Z M 72 434 " clip-rule="nonzero"/></clipPath><clipPath id="a7e30a24e2"><path d="M 0 94.347656 L 711.078125 -3.277344 L 809.828125 715.976562 L 98.75 813.601562 Z M 0 94.347656 " clip-rule="nonzero"/></clipPath><clipPath id="f6bc991e39"><path d="M 711.289062 -3.304688 L 0.210938 94.320312 L 98.957031 813.574219 L 810.039062 715.945312 Z M 711.289062 -3.304688 " clip-rule="nonzero"/></clipPath><clipPath id="84c3efa9ff"><path d="M 223 37 L 738 37 L 738 608 L 223 608 Z M 223 37 " clip-rule="nonzero"/></clipPath><clipPath id="f37be8ba47"><path d="M 0 94.347656 L 711.078125 -3.277344 L 809.828125 715.976562 L 98.75 813.601562 Z M 0 94.347656 " clip-rule="nonzero"/></clipPath><clipPath id="f62c73b9b7"><path d="M 711.289062 -3.304688 L 0.210938 94.320312 L 98.957031 813.574219 L 810.039062 715.945312 Z M 711.289062 -3.304688 " clip-rule="nonzero"/></clipPath><clipPath id="d6bccea9a7"><rect x="0" width="810" y="0" height="810"/></clipPath></defs><g clip-path="url(#66efd03a9d)"><g transform="matrix(1, 0, 0, 1, 0, 0.000000000000039746)"><g clip-path="url(#e2efd5e213)"><g clip-path="url(#bcf5e9dca6)"><g clip-path="url(#08123415b8)"><rect x="-178.2" width="1166.4" fill="#c599b2" height="1166.39999" y="-178.199998" fill-opacity="1"/></g></g></g></g></g><g clip-path="url(#18454ec7ac)"><g transform="matrix(1, 0, 0, 1, 0, 0.000000000000039746)"><g clip-path="url(#d6bccea9a7)"><g clip-path="url(#cf85095585)"><g clip-path="url(#1e38dfa580)"><g clip-path="url(#ce297d6afa)"><path fill="#ffffff" d="M 748.488281 471.988281 C 748.757812 471.421875 749.035156 470.871094 749.382812 470.367188 C 749.699219 469.855469 750.085938 469.402344 750.476562 468.976562 C 750.890625 468.570312 751.304688 468.191406 751.761719 467.886719 C 752.222656 467.585938 752.691406 467.328125 753.183594 467.152344 C 753.671875 466.976562 754.15625 466.835938 754.648438 466.78125 C 755.140625 466.722656 755.621094 466.726562 756.089844 466.777344 C 756.558594 466.847656 757.007812 466.960938 757.433594 467.113281 C 757.859375 467.273438 758.257812 467.492188 758.628906 467.734375 C 759 467.984375 759.332031 468.289062 759.644531 468.601562 C 759.941406 468.945312 760.242188 469.269531 760.484375 469.664062 L 760.578125 469.800781 L 760.664062 469.953125 L 760.835938 470.25 C 760.890625 470.351562 760.941406 470.460938 760.996094 470.5625 C 761.042969 470.664062 761.109375 470.773438 761.136719 470.863281 L 761.242188 471.136719 C 761.261719 471.183594 761.28125 471.222656 761.296875 471.277344 L 761.335938 471.441406 L 761.425781 471.769531 C 761.441406 471.824219 761.457031 471.871094 761.46875 471.933594 L 761.511719 472.121094 C 762.007812 474.105469 762.054688 476.109375 761.699219 478.113281 C 761.359375 480.113281 760.671875 482.117188 759.707031 484.066406 C 758.75 486.015625 757.578125 487.929688 756.226562 489.75 C 755.554688 490.664062 754.828125 491.550781 754.097656 492.429688 L 753.820312 492.757812 L 753.59375 493.011719 C 753.515625 493.097656 753.457031 493.175781 753.367188 493.265625 L 753.054688 493.5625 L 751.820312 494.742188 C 751.042969 495.523438 750.097656 496.339844 749.210938 497.140625 C 748.328125 497.953125 747.394531 498.734375 746.476562 499.523438 C 745.574219 500.320312 744.609375 501.066406 743.664062 501.828125 C 742.730469 502.601562 741.742188 503.324219 740.769531 504.0625 C 740.277344 504.421875 739.8125 504.8125 739.3125 505.164062 L 737.832031 506.25 C 737.332031 506.605469 736.851562 506.976562 736.34375 507.328125 L 734.832031 508.378906 C 730.777344 511.144531 726.652344 513.851562 722.394531 516.378906 L 719.195312 518.269531 C 718.125 518.898438 717.0625 519.53125 715.972656 520.136719 C 714.894531 520.753906 713.816406 521.367188 712.722656 521.953125 C 711.632812 522.550781 710.542969 523.152344 709.4375 523.726562 C 708.886719 524.011719 708.34375 524.320312 707.796875 524.613281 L 706.089844 525.519531 L 704.375 526.421875 L 701.023438 528.257812 C 700.464844 528.5625 699.90625 528.871094 699.355469 529.152344 L 696.054688 530.878906 C 693.839844 532.023438 691.632812 533.175781 689.378906 534.273438 C 687.148438 535.398438 684.859375 536.449219 682.601562 537.554688 L 679.1875 539.1875 C 678.046875 539.734375 676.894531 540.261719 675.75 540.796875 C 674.605469 541.335938 673.449219 541.867188 672.292969 542.394531 C 671.132812 542.917969 669.992188 543.476562 668.832031 544.011719 C 664.214844 546.179688 659.535156 548.296875 654.894531 550.554688 C 652.566406 551.671875 650.230469 552.789062 647.910156 553.941406 C 645.59375 555.117188 643.277344 556.277344 640.964844 557.484375 C 638.636719 558.65625 636.382812 559.929688 634.101562 561.160156 L 630.800781 562.917969 C 629.671875 563.492188 628.574219 564.109375 627.433594 564.6875 L 624.035156 566.453125 C 622.898438 567.035156 621.75 567.621094 620.609375 568.230469 C 618.332031 569.433594 616.027344 570.636719 613.742188 571.882812 C 611.460938 573.152344 609.171875 574.414062 606.921875 575.765625 C 605.800781 576.453125 604.675781 577.117188 603.566406 577.828125 C 603.011719 578.179688 602.453125 578.523438 601.902344 578.882812 C 601.351562 579.242188 600.808594 579.621094 600.261719 579.984375 C 595.898438 582.921875 591.699219 586.136719 587.9375 589.777344 L 588.464844 590.550781 C 592.710938 587.703125 597.175781 585.183594 601.746094 582.890625 C 606.324219 580.597656 611.007812 578.523438 615.738281 576.539062 L 629.964844 570.628906 C 631.152344 570.136719 632.332031 569.617188 633.515625 569.113281 L 637.054688 567.546875 C 639.386719 566.480469 641.71875 565.402344 644.0625 564.367188 C 653.4375 560.199219 662.914062 556.25 672.359375 552.195312 C 677.082031 550.164062 681.796875 548.105469 686.472656 545.957031 C 691.148438 543.800781 695.789062 541.5625 700.371094 539.203125 L 703.789062 537.394531 C 704.359375 537.09375 704.921875 536.78125 705.480469 536.46875 L 707.164062 535.53125 C 709.402344 534.257812 711.683594 533.109375 713.929688 531.832031 C 718.433594 529.324219 722.867188 526.691406 727.207031 523.902344 C 731.546875 521.117188 735.792969 518.179688 739.898438 515.050781 L 741.4375 513.871094 C 741.953125 513.484375 742.445312 513.066406 742.953125 512.664062 C 743.957031 511.851562 744.972656 511.054688 745.945312 510.203125 C 746.925781 509.359375 747.917969 508.535156 748.863281 507.652344 C 749.816406 506.777344 750.785156 505.925781 751.703125 505.011719 C 752.628906 504.105469 753.574219 503.222656 754.453125 502.273438 C 755.34375 501.332031 756.257812 500.421875 757.105469 499.425781 L 758.402344 497.960938 L 758.726562 497.597656 C 758.828125 497.46875 758.925781 497.328125 759.023438 497.199219 C 759.226562 496.929688 759.417969 496.664062 759.605469 496.398438 C 760.363281 495.339844 761.082031 494.25 761.757812 493.132812 C 763.105469 490.902344 764.285156 488.550781 765.179688 486.082031 C 766.070312 483.613281 766.675781 481.011719 766.785156 478.351562 C 766.890625 475.703125 766.460938 473 765.4375 470.539062 C 765.179688 469.921875 764.898438 469.296875 764.511719 468.726562 C 764.324219 468.433594 764.121094 468.167969 763.921875 467.894531 L 763.597656 467.503906 L 763.4375 467.308594 L 763.261719 467.125 L 762.910156 466.753906 L 762.535156 466.410156 L 762.34375 466.242188 L 762.140625 466.082031 L 761.738281 465.769531 C 761.179688 465.375 760.589844 465.023438 759.957031 464.753906 C 759.324219 464.488281 758.667969 464.277344 757.988281 464.15625 C 757.3125 464.042969 756.621094 464 755.9375 464.039062 C 755.25 464.089844 754.570312 464.21875 753.917969 464.421875 C 753.261719 464.628906 752.640625 464.925781 752.054688 465.273438 C 751.464844 465.625 750.9375 466.0625 750.445312 466.53125 C 749.957031 467.003906 749.535156 467.539062 749.15625 468.09375 C 748.414062 469.226562 747.902344 470.480469 747.582031 471.773438 Z M 748.488281 471.988281 " fill-opacity="1" fill-rule="nonzero"/></g></g></g><g clip-path="url(#05910020fa)"><g clip-path="url(#2a8cca29cf)"><g clip-path="url(#9d252f93a1)"><path fill="#ffffff" d="M 710.203125 427.273438 C 710.332031 426.65625 710.472656 426.054688 710.6875 425.484375 C 710.875 424.910156 711.144531 424.375 711.421875 423.871094 C 711.722656 423.378906 712.042969 422.914062 712.410156 422.507812 C 712.789062 422.109375 713.179688 421.742188 713.613281 421.457031 C 714.046875 421.167969 714.488281 420.917969 714.949219 420.742188 C 715.414062 420.574219 715.882812 420.460938 716.351562 420.402344 C 716.820312 420.355469 717.285156 420.359375 717.734375 420.40625 C 718.183594 420.460938 718.621094 420.578125 719.039062 420.726562 C 719.460938 420.882812 719.855469 421.09375 720.234375 421.324219 C 720.605469 421.585938 720.972656 421.828125 721.300781 422.15625 L 721.425781 422.269531 L 721.546875 422.394531 L 721.785156 422.640625 C 721.863281 422.726562 721.9375 422.820312 722.011719 422.910156 C 722.082031 422.996094 722.175781 423.085938 722.21875 423.167969 L 722.390625 423.410156 C 722.414062 423.453125 722.445312 423.484375 722.472656 423.535156 L 722.554688 423.683594 L 722.71875 423.976562 C 722.746094 424.027344 722.769531 424.070312 722.800781 424.128906 L 722.886719 424.300781 C 723.84375 426.109375 724.367188 428.042969 724.496094 430.074219 C 724.648438 432.097656 724.453125 434.210938 723.980469 436.332031 C 723.515625 438.453125 722.832031 440.589844 721.949219 442.683594 C 721.515625 443.730469 721.023438 444.761719 720.523438 445.792969 L 720.332031 446.175781 L 720.167969 446.480469 C 720.113281 446.578125 720.074219 446.671875 720.007812 446.777344 L 719.777344 447.140625 L 718.859375 448.582031 C 718.285156 449.523438 717.566406 450.539062 716.894531 451.53125 C 716.230469 452.53125 715.507812 453.507812 714.808594 454.496094 C 714.125 455.488281 713.355469 456.441406 712.625 457.410156 C 711.898438 458.378906 711.109375 459.316406 710.34375 460.261719 C 709.949219 460.730469 709.59375 461.21875 709.1875 461.683594 L 708.007812 463.089844 C 707.613281 463.554688 707.230469 464.03125 706.820312 464.488281 L 705.601562 465.867188 C 702.324219 469.519531 698.960938 473.128906 695.425781 476.601562 L 692.769531 479.199219 C 691.882812 480.066406 690.996094 480.929688 690.089844 481.777344 C 689.183594 482.628906 688.285156 483.484375 687.359375 484.316406 C 686.445312 485.160156 685.527344 486 684.589844 486.820312 C 684.125 487.230469 683.667969 487.65625 683.207031 488.074219 L 681.769531 489.359375 L 680.320312 490.644531 L 678.90625 491.933594 L 677.5 493.222656 C 677.027344 493.65625 676.558594 494.085938 676.09375 494.488281 L 673.292969 496.953125 C 671.414062 498.59375 669.550781 500.238281 667.621094 501.84375 C 665.71875 503.464844 663.75 505.03125 661.820312 506.644531 L 658.894531 509.042969 C 657.914062 509.839844 656.921875 510.632812 655.9375 511.425781 C 654.953125 512.222656 653.957031 513.011719 652.957031 513.800781 C 651.957031 514.585938 650.984375 515.398438 649.980469 516.195312 C 646.015625 519.398438 641.972656 522.574219 638 525.871094 C 636.011719 527.511719 634.003906 529.148438 632.027344 530.824219 C 630.054688 532.515625 628.078125 534.195312 626.121094 535.914062 C 624.140625 537.609375 622.25 539.382812 620.332031 541.121094 L 617.542969 543.613281 C 616.582031 544.4375 615.660156 545.300781 614.695312 546.132812 L 611.8125 548.652344 C 610.847656 549.492188 609.871094 550.332031 608.90625 551.195312 C 606.980469 552.90625 605.03125 554.621094 603.109375 556.378906 C 601.195312 558.15625 599.277344 559.925781 597.410156 561.777344 C 596.484375 562.707031 595.550781 563.621094 594.640625 564.578125 C 594.1875 565.050781 593.726562 565.519531 593.277344 566 C 592.828125 566.480469 592.386719 566.972656 591.945312 567.457031 C 588.40625 571.351562 585.097656 575.472656 582.304688 579.90625 L 583.003906 580.53125 C 586.449219 576.753906 590.183594 573.242188 594.078125 569.929688 C 597.976562 566.613281 602.035156 563.480469 606.15625 560.425781 L 618.566406 551.296875 C 619.601562 550.53125 620.625 549.75 621.65625 548.976562 L 624.71875 546.617188 C 626.726562 545.023438 628.734375 543.421875 630.765625 541.859375 C 638.878906 535.578125 647.144531 529.484375 655.355469 523.300781 C 659.457031 520.203125 663.542969 517.082031 667.574219 513.878906 C 671.605469 510.671875 675.574219 507.394531 679.464844 504.011719 L 682.351562 501.4375 C 682.832031 501.011719 683.304688 500.574219 683.773438 500.136719 L 685.1875 498.828125 C 687.058594 497.054688 689 495.398438 690.875 493.621094 C 694.652344 490.117188 698.332031 486.5 701.882812 482.761719 C 705.433594 479.023438 708.859375 475.15625 712.105469 471.140625 L 713.316406 469.632812 C 713.722656 469.132812 714.105469 468.609375 714.5 468.101562 C 715.28125 467.070312 716.078125 466.054688 716.820312 464.996094 C 717.570312 463.945312 718.339844 462.90625 719.046875 461.820312 C 719.761719 460.746094 720.503906 459.6875 721.175781 458.578125 C 721.859375 457.480469 722.566406 456.398438 723.199219 455.265625 C 723.839844 454.140625 724.507812 453.039062 725.097656 451.867188 L 726.007812 450.140625 L 726.234375 449.707031 C 726.304688 449.554688 726.367188 449.398438 726.433594 449.246094 C 726.566406 448.9375 726.6875 448.628906 726.804688 448.332031 C 727.289062 447.121094 727.730469 445.890625 728.117188 444.648438 C 728.894531 442.15625 729.484375 439.597656 729.765625 436.980469 C 730.039062 434.375 730.011719 431.699219 729.480469 429.09375 C 728.953125 426.496094 727.898438 423.972656 726.3125 421.824219 C 725.914062 421.289062 725.492188 420.75 724.980469 420.285156 C 724.730469 420.050781 724.472656 419.839844 724.210938 419.621094 L 723.804688 419.316406 L 723.597656 419.164062 L 723.382812 419.027344 L 722.953125 418.75 L 722.503906 418.507812 L 722.277344 418.386719 L 722.046875 418.28125 L 721.578125 418.070312 C 720.941406 417.824219 720.285156 417.625 719.605469 417.507812 C 718.929688 417.402344 718.242188 417.351562 717.554688 417.398438 C 716.867188 417.445312 716.1875 417.570312 715.53125 417.773438 C 714.878906 417.984375 714.25 418.273438 713.664062 418.625 C 713.074219 418.980469 712.542969 419.417969 712.058594 419.894531 C 711.570312 420.375 711.160156 420.925781 710.792969 421.496094 C 710.433594 422.074219 710.152344 422.691406 709.910156 423.324219 C 709.460938 424.597656 709.261719 425.941406 709.261719 427.273438 Z M 710.203125 427.273438 " fill-opacity="1" fill-rule="nonzero"/></g></g></g><g clip-path="url(#8305e41f05)"><g clip-path="url(#b341f24671)"><g clip-path="url(#ad7e7bc51a)"><path fill="#ffffff" d="M 582.15625 580.167969 C 583.167969 582.464844 583.839844 584.691406 584.160156 586.855469 C 584.304688 587.945312 584.402344 589 584.386719 590.042969 C 584.378906 591.082031 584.324219 592.089844 584.160156 593.078125 C 584.015625 594.058594 583.816406 595.011719 583.527344 595.925781 C 583.246094 596.835938 582.941406 597.71875 582.546875 598.539062 C 581.773438 600.1875 580.808594 601.640625 579.730469 602.769531 C 578.65625 603.90625 577.484375 604.691406 576.394531 605.125 C 575.292969 605.554688 574.296875 605.675781 573.207031 605.597656 C 572.125 605.507812 570.898438 605.207031 569.539062 604.613281 C 568.863281 604.328125 568.152344 603.964844 567.4375 603.53125 L 567.164062 603.378906 L 566.917969 603.222656 C 566.757812 603.113281 566.582031 603.019531 566.429688 602.910156 L 565.972656 602.585938 C 565.820312 602.480469 565.691406 602.359375 565.542969 602.253906 C 564.410156 601.375 563.566406 600.445312 562.9375 599.441406 C 562.304688 598.4375 561.867188 597.328125 561.621094 596.023438 C 561.59375 595.859375 561.554688 595.699219 561.542969 595.527344 C 561.523438 595.359375 561.492188 595.191406 561.488281 595.015625 C 561.453125 594.671875 561.433594 594.316406 561.433594 593.953125 C 561.441406 593.226562 561.488281 592.464844 561.617188 591.691406 C 561.855469 590.136719 562.363281 588.53125 563.089844 586.996094 C 563.816406 585.457031 564.777344 584.015625 565.917969 582.738281 L 566.355469 582.269531 L 566.820312 581.832031 C 566.976562 581.695312 567.136719 581.550781 567.300781 581.417969 C 567.46875 581.292969 567.628906 581.140625 567.796875 581.011719 C 568.472656 580.484375 569.203125 580.046875 569.992188 579.671875 C 570.777344 579.285156 571.628906 579.015625 572.546875 578.820312 C 573.46875 578.621094 574.445312 578.5625 575.492188 578.589844 C 576.527344 578.640625 577.628906 578.78125 578.738281 579.074219 C 579.863281 579.34375 580.992188 579.746094 582.175781 580.1875 L 582.804688 579.488281 C 581.003906 577.839844 578.945312 576.402344 576.605469 575.527344 C 574.28125 574.632812 571.710938 574.316406 569.214844 574.671875 C 566.71875 575.027344 564.347656 576.027344 562.277344 577.417969 C 560.203125 578.8125 558.410156 580.597656 556.945312 582.609375 C 555.480469 584.625 554.339844 586.875 553.613281 589.265625 C 552.882812 591.652344 552.550781 594.179688 552.734375 596.699219 C 552.910156 599.210938 553.625 601.703125 554.847656 603.921875 C 555.457031 605.03125 556.1875 606.074219 557.011719 607.03125 C 557.84375 607.980469 558.765625 608.84375 559.746094 609.625 C 560.722656 610.410156 561.785156 611.078125 562.867188 611.6875 C 563.949219 612.292969 565.074219 612.832031 566.246094 613.269531 C 568.578125 614.152344 571.113281 614.65625 573.660156 614.523438 C 576.203125 614.40625 578.722656 613.585938 580.871094 612.226562 C 581.945312 611.542969 582.929688 610.730469 583.808594 609.824219 C 584.691406 608.917969 585.453125 607.910156 586.121094 606.847656 C 587.453125 604.726562 588.367188 602.367188 588.875 599.9375 C 589.386719 597.507812 589.507812 595 589.222656 592.539062 C 588.921875 590.082031 588.214844 587.675781 587.128906 585.464844 C 586.042969 583.25 584.574219 581.230469 582.828125 579.511719 Z M 582.15625 580.167969 " fill-opacity="1" fill-rule="nonzero"/></g></g></g><g clip-path="url(#9ddfab1c8a)"><g clip-path="url(#a7e30a24e2)"><g clip-path="url(#f6bc991e39)"><path fill="#ffffff" d="M 564.328125 607.171875 C 555.714844 611.617188 547.648438 616.921875 539.855469 622.539062 C 535.964844 625.351562 532.144531 628.253906 528.378906 631.222656 C 524.621094 634.195312 520.921875 637.246094 517.269531 640.335938 C 509.960938 646.519531 502.820312 652.882812 495.796875 659.359375 C 492.289062 662.597656 488.796875 665.859375 485.34375 669.152344 C 481.890625 672.445312 478.457031 675.761719 475.039062 679.089844 C 461.371094 692.398438 448.027344 706.007812 434.644531 719.496094 C 427.960938 726.242188 421.269531 732.972656 414.480469 739.519531 C 411.085938 742.792969 407.664062 746.011719 404.195312 749.109375 C 402.457031 750.648438 400.710938 752.164062 398.949219 753.605469 C 397.195312 755.050781 395.414062 756.417969 393.664062 757.597656 L 394.324219 757.214844 C 392.25 758.207031 390.015625 758.992188 387.804688 759.488281 C 385.59375 759.984375 383.378906 760.1875 381.453125 759.992188 C 380.492188 759.894531 379.613281 759.699219 378.863281 759.417969 C 378.113281 759.132812 377.496094 758.773438 376.976562 758.335938 C 376.457031 757.898438 376.023438 757.378906 375.648438 756.722656 C 375.273438 756.066406 374.96875 755.273438 374.734375 754.375 L 374.675781 754.136719 L 374.519531 753.726562 C 374.261719 753.042969 374.128906 752.316406 374.121094 751.46875 C 374.113281 750.632812 374.242188 749.683594 374.5 748.675781 C 375.023438 746.652344 376.054688 744.445312 377.347656 742.285156 C 378.648438 740.117188 380.203125 737.96875 381.890625 735.878906 C 383.582031 733.785156 385.40625 731.742188 387.3125 729.746094 C 391.132812 725.75 395.261719 721.933594 399.527344 718.234375 C 403.796875 714.542969 408.214844 710.964844 412.714844 707.46875 C 421.71875 700.480469 431.054688 693.835938 440.539062 687.375 C 445.28125 684.140625 450.066406 680.964844 454.882812 677.820312 C 459.691406 674.671875 464.53125 671.5625 469.398438 668.480469 C 474.261719 665.398438 479.152344 662.34375 484.054688 659.296875 C 488.960938 656.25 493.878906 653.230469 498.832031 650.128906 C 500.070312 649.355469 501.3125 648.570312 502.566406 647.765625 C 503.191406 647.359375 503.824219 646.949219 504.464844 646.523438 C 505.109375 646.09375 505.753906 645.660156 506.46875 645.144531 L 506.644531 645.015625 C 506.652344 645.003906 506.5 645.113281 506.722656 644.964844 L 507.261719 644.59375 C 507.609375 644.351562 507.945312 644.109375 508.277344 643.863281 C 508.941406 643.375 509.59375 642.871094 510.238281 642.355469 C 511.523438 641.3125 512.785156 640.203125 514.027344 638.949219 C 515.265625 637.683594 516.492188 636.308594 517.660156 634.5 C 518.238281 633.59375 518.804688 632.566406 519.285156 631.3125 C 519.75 630.054688 520.152344 628.535156 520.128906 626.707031 C 520.113281 625.804688 519.992188 624.84375 519.726562 623.902344 C 519.460938 622.964844 519.066406 622.070312 518.59375 621.273438 C 518.121094 620.472656 517.582031 619.800781 517.027344 619.210938 C 516.75 618.925781 516.488281 618.664062 516.132812 618.355469 C 515.769531 618.078125 516.21875 618.359375 515.1875 617.632812 C 514.777344 617.375 514.582031 617.277344 514.339844 617.148438 C 513.472656 616.71875 512.835938 616.503906 512.210938 616.3125 C 511.589844 616.125 511.019531 615.992188 510.46875 615.890625 C 509.367188 615.679688 508.363281 615.578125 507.390625 615.527344 C 505.453125 615.429688 503.675781 615.535156 501.964844 615.71875 C 500.253906 615.898438 498.617188 616.1875 497.023438 616.519531 C 495.4375 616.847656 493.839844 617.261719 492.464844 617.632812 C 491.035156 618.003906 489.613281 618.394531 488.1875 618.789062 C 485.339844 619.585938 482.5 620.410156 479.671875 621.289062 C 476.839844 622.160156 474.019531 623.085938 471.214844 624.046875 C 459.976562 627.898438 448.949219 632.589844 438.375 638.226562 C 427.796875 643.851562 417.710938 650.480469 408.328125 657.964844 C 407.160156 658.90625 405.988281 659.847656 404.84375 660.820312 C 403.691406 661.769531 402.546875 662.773438 401.398438 663.765625 C 400.816406 664.265625 400.285156 664.769531 399.730469 665.269531 L 398.082031 666.773438 C 397.007812 667.773438 395.921875 668.769531 394.855469 669.777344 C 390.574219 673.800781 386.386719 677.894531 382.257812 682.023438 C 374.003906 690.277344 365.984375 698.644531 357.90625 706.839844 C 349.832031 715.035156 341.683594 723.046875 333.230469 730.621094 C 329.003906 734.410156 324.707031 738.089844 320.308594 741.636719 C 315.871094 745.207031 311.378906 748.679688 306.804688 752.035156 C 297.667969 758.742188 288.226562 764.96875 278.425781 770.390625 C 273.523438 773.097656 268.53125 775.601562 263.457031 777.84375 C 258.378906 780.078125 253.210938 782.042969 247.96875 783.648438 C 237.496094 786.867188 226.679688 788.628906 216.019531 788.203125 C 210.695312 787.984375 205.421875 787.230469 200.289062 785.902344 C 195.160156 784.585938 190.171875 782.699219 185.410156 780.300781 C 180.640625 777.910156 176.101562 775.003906 171.816406 771.703125 C 171.253906 771.273438 170.8125 770.917969 170.332031 770.539062 C 169.855469 770.128906 169.375 769.675781 168.898438 769.246094 L 168.535156 768.917969 L 168.160156 768.566406 L 166.652344 767.144531 L 165.90625 766.421875 C 163.914062 764.492188 161.972656 762.507812 160.085938 760.460938 C 158.195312 758.417969 156.351562 756.324219 154.550781 754.183594 C 152.75 752.042969 150.996094 749.851562 149.277344 747.628906 C 145.832031 743.1875 142.5625 738.582031 139.394531 733.882812 C 136.238281 729.171875 133.195312 724.363281 130.230469 719.480469 C 128.746094 717.035156 127.28125 714.578125 125.832031 712.105469 L 123.660156 708.382812 L 122.511719 706.402344 L 122.226562 705.90625 L 121.90625 705.414062 L 121.261719 704.4375 L 118.808594 700.734375 L 116.378906 697.105469 L 111.507812 689.910156 C 108.269531 685.132812 105.0625 680.375 101.988281 675.578125 C 98.910156 670.785156 95.964844 665.949219 93.25 661.027344 C 90.53125 656.109375 88.054688 651.097656 85.902344 645.976562 C 85.359375 644.699219 84.851562 643.40625 84.351562 642.117188 L 83.621094 640.167969 L 82.910156 638.160156 C 81.945312 635.515625 81.144531 632.996094 80.480469 630.378906 C 79.140625 625.171875 78.433594 619.820312 78.328125 614.433594 C 78.222656 609.046875 78.730469 603.621094 79.746094 598.246094 C 80.761719 592.867188 82.289062 587.539062 84.148438 582.285156 C 86.011719 577.03125 88.214844 571.851562 90.644531 566.734375 C 93.070312 561.617188 95.703125 556.5625 98.449219 551.535156 C 103.941406 541.476562 109.828125 531.507812 115.421875 521.257812 C 118.214844 516.132812 120.933594 510.929688 123.457031 505.601562 L 124.390625 503.597656 L 125.304688 501.578125 C 125.902344 500.230469 126.492188 498.847656 127.050781 497.546875 C 128.179688 494.914062 129.335938 492.300781 130.53125 489.710938 C 132.917969 484.539062 135.472656 479.472656 138.316406 474.605469 C 141.160156 469.742188 144.292969 465.085938 147.824219 460.78125 C 151.359375 456.488281 155.296875 452.554688 159.6875 449.230469 C 161.878906 447.5625 164.179688 446.050781 166.582031 444.710938 C 167.78125 444.042969 169.003906 443.414062 170.246094 442.824219 L 171.183594 442.394531 L 172.089844 441.996094 C 172.386719 441.855469 172.703125 441.765625 173.007812 441.648438 C 173.316406 441.539062 173.617188 441.425781 173.949219 441.324219 C 179.125 439.59375 184.652344 438.757812 190.238281 438.519531 C 195.832031 438.273438 201.492188 438.636719 207.125 439.355469 C 212.761719 440.082031 218.371094 441.175781 223.9375 442.511719 C 229.507812 443.84375 235.039062 445.394531 240.53125 447.109375 C 251.519531 450.527344 262.328125 454.59375 273.171875 458.644531 L 274.101562 456.296875 C 263.335938 452.0625 252.527344 447.828125 241.484375 444.21875 C 235.964844 442.410156 230.390625 440.753906 224.75 439.328125 C 219.109375 437.898438 213.398438 436.707031 207.621094 435.886719 C 201.847656 435.074219 195.996094 434.617188 190.132812 434.796875 C 184.277344 434.972656 178.390625 435.769531 172.757812 437.5625 C 172.402344 437.667969 172.050781 437.796875 171.699219 437.914062 C 171.34375 438.042969 170.984375 438.144531 170.644531 438.296875 L 169.613281 438.730469 L 168.601562 439.175781 C 167.261719 439.78125 165.945312 440.441406 164.648438 441.140625 C 162.058594 442.539062 159.578125 444.128906 157.214844 445.875 C 152.480469 449.363281 148.25 453.480469 144.476562 457.949219 C 140.707031 462.425781 137.382812 467.246094 134.386719 472.242188 C 131.390625 477.242188 128.714844 482.410156 126.222656 487.65625 C 124.976562 490.277344 123.773438 492.917969 122.601562 495.570312 C 122.015625 496.902344 121.433594 498.214844 120.835938 499.523438 L 119.925781 501.484375 L 118.992188 503.429688 C 116.476562 508.613281 113.75 513.703125 110.933594 518.746094 C 105.296875 528.828125 99.292969 538.726562 93.648438 548.851562 C 90.824219 553.914062 88.09375 559.039062 85.554688 564.261719 C 83.015625 569.480469 80.679688 574.816406 78.683594 580.28125 C 76.6875 585.75 75.027344 591.355469 73.894531 597.078125 C 72.765625 602.804688 72.164062 608.644531 72.230469 614.492188 C 72.292969 620.335938 73.015625 626.175781 74.421875 631.851562 C 75.113281 634.6875 75.984375 637.488281 76.953125 640.226562 C 77.875 642.96875 78.910156 645.703125 80.019531 648.390625 C 82.234375 653.765625 84.78125 659.003906 87.5625 664.101562 C 90.332031 669.207031 93.320312 674.1875 96.417969 679.082031 C 99.515625 683.984375 102.722656 688.808594 105.941406 693.621094 C 109.15625 698.429688 112.378906 703.242188 115.519531 708.074219 L 116.105469 708.976562 L 116.394531 709.425781 L 116.660156 709.894531 L 117.726562 711.765625 L 119.894531 715.53125 C 121.347656 718.035156 122.8125 720.535156 124.300781 723.019531 C 127.273438 727.992188 130.347656 732.910156 133.546875 737.75 C 139.957031 747.410156 146.914062 756.75 154.777344 765.316406 C 156.734375 767.460938 158.757812 769.550781 160.835938 771.582031 L 161.613281 772.347656 L 162.402344 773.097656 C 162.929688 773.597656 163.449219 774.101562 163.992188 774.59375 C 164.535156 775.082031 165.066406 775.585938 165.621094 776.066406 C 166.195312 776.527344 166.769531 776.996094 167.34375 777.4375 C 171.945312 781.015625 176.863281 784.199219 182.066406 786.847656 C 187.265625 789.496094 192.75 791.601562 198.398438 793.085938 C 204.050781 794.570312 209.859375 795.417969 215.6875 795.675781 C 221.523438 795.925781 227.371094 795.59375 233.136719 794.753906 C 238.90625 793.917969 244.597656 792.605469 250.167969 790.917969 C 261.3125 787.535156 271.960938 782.71875 282.132812 777.125 C 292.308594 771.523438 302.023438 765.132812 311.382812 758.289062 C 316.0625 754.867188 320.660156 751.328125 325.179688 747.699219 C 329.703125 744.070312 334.113281 740.300781 338.4375 736.4375 C 347.089844 728.710938 355.367188 720.589844 363.503906 712.351562 C 371.644531 704.113281 379.660156 695.769531 387.851562 687.609375 C 391.941406 683.527344 396.082031 679.5 400.289062 675.542969 C 402.398438 673.570312 404.511719 671.601562 406.664062 669.691406 C 407.746094 668.75 408.828125 667.800781 409.941406 666.886719 C 411.039062 665.953125 412.164062 665.054688 413.28125 664.148438 C 422.285156 656.96875 431.945312 650.617188 442.113281 645.210938 C 452.273438 639.792969 462.90625 635.265625 473.804688 631.507812 C 476.53125 630.566406 479.265625 629.664062 482.023438 628.8125 C 484.773438 627.953125 487.542969 627.144531 490.316406 626.363281 C 491.707031 625.980469 493.097656 625.59375 494.492188 625.226562 C 495.890625 624.851562 497.261719 624.496094 498.652344 624.203125 C 500.039062 623.914062 501.4375 623.671875 502.832031 623.519531 C 504.226562 623.367188 505.628906 623.292969 506.996094 623.363281 C 507.679688 623.394531 508.355469 623.464844 509.007812 623.59375 C 509.332031 623.652344 509.648438 623.730469 509.953125 623.820312 C 510.257812 623.910156 510.550781 624.019531 510.789062 624.140625 C 510.847656 624.167969 510.90625 624.203125 510.929688 624.21875 C 510.855469 624.164062 511 624.28125 511.023438 624.308594 C 511.128906 624.390625 511.234375 624.503906 511.335938 624.609375 C 511.53125 624.824219 511.714844 625.042969 511.851562 625.28125 C 512.128906 625.75 512.277344 626.261719 512.28125 626.816406 C 512.296875 627.929688 511.765625 629.15625 511.050781 630.269531 C 510.328125 631.398438 509.417969 632.449219 508.441406 633.441406 C 507.460938 634.433594 506.402344 635.371094 505.304688 636.261719 C 504.757812 636.707031 504.195312 637.136719 503.628906 637.558594 C 503.34375 637.769531 503.058594 637.976562 502.769531 638.175781 L 502.335938 638.476562 C 502.285156 638.511719 502.171875 638.582031 502.089844 638.644531 L 501.863281 638.8125 C 500.726562 639.632812 499.519531 640.421875 498.316406 641.203125 C 497.105469 641.984375 495.890625 642.761719 494.667969 643.53125 C 489.777344 646.613281 484.855469 649.65625 479.949219 652.726562 C 475.039062 655.792969 470.136719 658.875 465.257812 661.988281 C 460.375 665.105469 455.511719 668.25 450.675781 671.4375 C 445.835938 674.621094 441.019531 677.84375 436.242188 681.121094 C 426.683594 687.675781 417.257812 694.4375 408.105469 701.589844 C 403.535156 705.164062 399.035156 708.839844 394.652344 712.667969 C 390.277344 716.5 386.011719 720.476562 381.996094 724.726562 C 379.988281 726.851562 378.042969 729.046875 376.207031 731.34375 C 374.375 733.648438 372.644531 736.046875 371.125 738.617188 C 369.613281 741.1875 368.296875 743.929688 367.535156 746.9375 C 367.160156 748.441406 366.9375 750.011719 366.96875 751.613281 C 367 753.214844 367.300781 754.84375 367.90625 756.363281 L 367.851562 756.195312 C 368.230469 757.613281 368.769531 759.015625 369.542969 760.328125 C 370.308594 761.632812 371.316406 762.832031 372.511719 763.804688 C 373.703125 764.78125 375.070312 765.523438 376.484375 766.035156 C 377.90625 766.546875 379.375 766.835938 380.832031 766.96875 C 383.753906 767.230469 386.632812 766.894531 389.398438 766.261719 C 392.167969 765.613281 394.835938 764.648438 397.382812 763.40625 L 397.480469 763.363281 L 397.574219 763.300781 C 399.597656 761.910156 401.503906 760.417969 403.355469 758.875 C 405.203125 757.335938 407.007812 755.753906 408.785156 754.148438 C 412.332031 750.933594 415.785156 747.632812 419.191406 744.296875 C 426.003906 737.625 432.664062 730.820312 439.308594 724.007812 C 452.601562 710.390625 465.816406 696.722656 479.296875 683.332031 C 486.039062 676.636719 492.835938 670.011719 499.746094 663.5 C 506.648438 656.988281 513.660156 650.597656 520.820312 644.398438 C 527.980469 638.195312 535.3125 632.203125 542.890625 626.574219 C 550.472656 620.957031 558.300781 615.679688 566.539062 611.261719 Z M 564.328125 607.171875 " fill-opacity="1" fill-rule="nonzero"/></g></g></g><g clip-path="url(#84c3efa9ff)"><g clip-path="url(#f37be8ba47)"><g clip-path="url(#f62c73b9b7)"><path fill="#ffffff" d="M 513.824219 229.878906 C 513.238281 227.03125 513.070312 224.089844 513.09375 221.167969 C 513.136719 218.238281 513.382812 215.3125 513.796875 212.410156 C 514.621094 206.601562 516.09375 200.894531 518.042969 195.367188 C 521.960938 184.316406 527.914062 174.015625 535.484375 165.125 C 539.265625 160.671875 543.453125 156.574219 547.957031 152.867188 C 552.449219 149.144531 557.292969 145.863281 562.339844 142.941406 C 564.867188 141.488281 567.457031 140.148438 570.085938 138.886719 C 572.714844 137.621094 575.40625 136.492188 578.117188 135.417969 L 580.160156 134.636719 L 582.222656 133.898438 L 583.253906 133.53125 L 584.335938 133.164062 L 585.410156 132.773438 L 586.480469 132.359375 C 589.316406 131.230469 592.085938 129.867188 594.707031 128.234375 C 597.328125 126.609375 599.804688 124.722656 602.074219 122.605469 C 604.339844 120.488281 606.402344 118.15625 608.238281 115.667969 C 611.914062 110.691406 614.710938 105.183594 617.015625 99.585938 C 619.320312 93.976562 621.175781 88.253906 622.882812 82.542969 L 623.183594 81.523438 C 623.234375 81.359375 623.277344 81.1875 623.332031 81.035156 L 623.5 80.574219 L 624.238281 78.539062 C 624.738281 77.167969 625.257812 75.8125 625.789062 74.460938 C 626.851562 71.757812 627.984375 69.097656 629.203125 66.492188 C 630.421875 63.886719 631.730469 61.339844 633.152344 58.894531 C 634.582031 56.453125 636.125 54.105469 637.832031 51.949219 C 639.535156 49.800781 641.398438 47.835938 643.429688 46.238281 C 644.441406 45.445312 645.496094 44.746094 646.578125 44.164062 C 647.664062 43.585938 648.78125 43.140625 649.914062 42.824219 C 652.179688 42.207031 654.523438 42.148438 656.878906 42.652344 L 657.320312 42.746094 C 657.46875 42.78125 657.617188 42.824219 657.761719 42.859375 L 658.207031 42.976562 L 658.644531 43.117188 C 658.792969 43.164062 658.933594 43.203125 659.089844 43.257812 L 659.574219 43.425781 C 659.898438 43.539062 660.226562 43.652344 660.542969 43.777344 C 661.828125 44.253906 663.09375 44.785156 664.339844 45.367188 C 669.324219 47.691406 673.957031 50.804688 678.1875 54.441406 C 682.421875 58.078125 686.261719 62.230469 689.761719 66.683594 C 693.265625 71.144531 696.425781 75.90625 699.3125 80.855469 C 705.082031 90.765625 709.765625 101.378906 713.726562 112.261719 C 717.695312 123.148438 720.945312 134.332031 723.589844 145.652344 C 724.914062 151.3125 726.082031 157.011719 727.085938 162.722656 C 728.085938 168.433594 728.925781 174.175781 729.496094 179.847656 C 729.5625 180.554688 729.628906 181.261719 729.6875 181.964844 L 729.851562 184.09375 C 729.957031 185.527344 730.046875 186.964844 730.121094 188.402344 C 730.269531 191.273438 730.363281 194.152344 730.402344 197.035156 C 730.484375 202.796875 730.34375 208.566406 730.011719 214.328125 C 729.347656 225.859375 727.902344 237.363281 725.839844 248.773438 C 721.6875 271.597656 715.164062 294.03125 707.066406 315.898438 C 703.015625 326.835938 698.570312 337.640625 693.804688 348.308594 C 691.417969 353.644531 688.953125 358.945312 686.414062 364.210938 C 683.882812 369.480469 681.277344 374.71875 678.601562 379.921875 C 667.898438 400.742188 656.128906 421.03125 643.558594 440.828125 C 630.972656 460.609375 617.636719 479.933594 603.59375 498.726562 C 596.570312 508.121094 589.375 517.386719 582.003906 526.5 C 574.628906 535.613281 567.082031 544.578125 559.335938 553.332031 C 555.464844 557.714844 551.550781 562.042969 547.570312 566.300781 C 543.59375 570.550781 539.558594 574.738281 535.445312 578.777344 C 533.390625 580.792969 531.320312 582.777344 529.230469 584.6875 C 527.148438 586.597656 525.03125 588.453125 522.964844 590.089844 C 522.449219 590.496094 521.941406 590.886719 521.445312 591.246094 C 520.953125 591.605469 520.472656 591.9375 520.054688 592.203125 C 519.847656 592.335938 519.652344 592.453125 519.503906 592.535156 C 519.355469 592.617188 519.242188 592.671875 519.261719 592.660156 C 519.277344 592.65625 519.324219 592.632812 519.460938 592.585938 C 519.601562 592.542969 519.824219 592.464844 520.296875 592.394531 C 520.777344 592.347656 521.527344 592.195312 523.058594 592.570312 C 524.554688 592.835938 526.917969 594.519531 527.710938 596.226562 C 528.578125 597.894531 528.558594 598.867188 528.605469 599.445312 C 528.613281 600.042969 528.5625 600.300781 528.535156 600.488281 C 528.484375 600.769531 528.519531 600.582031 528.570312 600.359375 L 528.691406 599.816406 L 529.183594 597.632812 C 529.511719 596.175781 529.835938 594.722656 530.152344 593.265625 C 531.4375 587.4375 532.65625 581.59375 533.816406 575.734375 C 534.976562 569.875 536.082031 564.007812 537.109375 558.117188 C 538.136719 552.230469 539.113281 546.328125 540 540.410156 C 540.894531 534.496094 541.699219 528.5625 542.4375 522.621094 C 545.359375 498.84375 547.011719 474.855469 547.003906 450.808594 C 546.996094 444.800781 546.890625 438.785156 546.679688 432.773438 C 546.457031 426.761719 546.132812 420.757812 545.675781 414.714844 L 545.304688 410.199219 C 545.175781 408.695312 545.011719 407.191406 544.871094 405.691406 L 544.648438 403.4375 L 544.398438 401.1875 C 544.222656 399.691406 544.070312 398.1875 543.875 396.695312 C 543.144531 390.707031 542.269531 384.75 541.320312 378.804688 C 540.351562 372.867188 539.269531 366.953125 538.113281 361.058594 C 536.925781 355.167969 535.671875 349.296875 534.316406 343.453125 C 531.597656 331.769531 528.546875 320.175781 525.1875 308.683594 C 518.46875 285.695312 510.609375 263.085938 501.726562 240.894531 C 499.515625 235.339844 497.226562 229.820312 494.886719 224.324219 C 492.550781 218.824219 490.144531 213.351562 487.675781 207.910156 C 482.753906 197.015625 477.5625 186.242188 472.109375 175.585938 C 466.648438 164.933594 460.902344 154.40625 454.761719 144.058594 C 451.679688 138.894531 448.511719 133.765625 445.175781 128.703125 C 444.335938 127.441406 443.511719 126.171875 442.648438 124.921875 L 441.363281 123.035156 L 440.054688 121.160156 C 439.191406 119.910156 438.277344 118.675781 437.390625 117.429688 L 435.328125 114.652344 L 434.621094 113.734375 C 434.148438 113.125 433.6875 112.507812 433.203125 111.898438 L 431.75 110.074219 C 431.261719 109.46875 430.75 108.867188 430.253906 108.261719 C 430.003906 107.96875 429.746094 107.644531 429.503906 107.371094 L 428.765625 106.523438 L 428.03125 105.675781 L 427.382812 104.894531 C 426.878906 104.292969 426.375 103.699219 425.863281 103.109375 C 424.84375 101.925781 423.8125 100.765625 422.765625 99.621094 C 418.578125 95.042969 414.183594 90.722656 409.597656 86.605469 C 405.015625 82.492188 400.246094 78.585938 395.28125 74.917969 C 390.316406 71.25 385.15625 67.816406 379.769531 64.679688 C 374.382812 61.550781 368.773438 58.714844 362.890625 56.347656 C 357.011719 53.980469 350.863281 52.058594 344.449219 50.871094 C 338.046875 49.683594 331.351562 49.238281 324.636719 49.9375 C 321.28125 50.289062 317.925781 50.914062 314.648438 51.851562 C 313.011719 52.320312 311.390625 52.859375 309.800781 53.476562 C 309.402344 53.625 309.007812 53.789062 308.609375 53.949219 C 308.199219 54.121094 307.78125 54.296875 307.367188 54.480469 C 306.476562 54.894531 305.710938 55.277344 304.914062 55.703125 C 301.765625 57.398438 298.792969 59.527344 296.167969 62.007812 C 293.542969 64.484375 291.273438 67.296875 289.394531 70.261719 C 287.507812 73.230469 286.007812 76.347656 284.800781 79.492188 C 283.59375 82.644531 282.675781 85.828125 281.964844 89 C 280.542969 95.351562 279.90625 101.652344 279.625 107.851562 C 279.359375 114.054688 279.472656 120.164062 279.71875 126.191406 C 279.964844 132.214844 280.371094 138.160156 280.664062 143.96875 C 280.738281 145.421875 280.804688 146.863281 280.855469 148.289062 L 280.972656 152.644531 L 281.003906 153.730469 L 281.015625 154.792969 C 281.019531 155.5 281.039062 156.210938 281.03125 156.917969 L 281.019531 159.042969 C 281.011719 159.753906 280.988281 160.457031 280.972656 161.164062 C 280.890625 163.996094 280.75 166.828125 280.511719 169.648438 C 280.277344 172.476562 279.96875 175.296875 279.59375 178.113281 C 278.824219 183.746094 277.789062 189.359375 276.488281 194.941406 C 273.910156 206.117188 270.402344 217.1875 266.566406 228.253906 L 265.113281 232.402344 L 263.636719 236.554688 L 262.132812 240.753906 L 260.65625 244.960938 C 258.695312 250.566406 256.769531 256.171875 254.84375 261.753906 C 251 272.925781 247.121094 284.007812 242.855469 294.875 L 241.242188 298.941406 L 239.582031 302.984375 L 237.875 307 L 237.449219 308.003906 L 236.992188 309.023438 L 236.085938 311.066406 L 235.632812 312.085938 L 235.402344 312.597656 C 235.328125 312.765625 235.253906 312.96875 235.175781 313.15625 L 234.726562 314.289062 L 234.3125 315.355469 C 233.765625 316.761719 233.230469 318.175781 232.707031 319.597656 C 231.65625 322.441406 230.664062 325.316406 229.738281 328.226562 C 227.890625 334.046875 226.320312 340.023438 225.246094 346.148438 C 224.167969 352.269531 223.609375 358.550781 223.730469 364.839844 C 223.839844 371.132812 224.652344 377.417969 226.082031 383.511719 C 227.511719 389.609375 229.546875 395.507812 231.976562 401.164062 C 232.585938 402.582031 233.222656 403.980469 233.875 405.371094 L 234.375 406.410156 L 234.886719 407.460938 L 235.421875 408.535156 C 235.597656 408.898438 235.792969 409.222656 235.980469 409.566406 L 237.113281 411.59375 L 238.234375 413.554688 C 238.609375 414.210938 238.996094 414.859375 239.378906 415.507812 C 239.757812 416.160156 240.140625 416.808594 240.535156 417.453125 C 242.082031 420.035156 243.6875 422.585938 245.324219 425.109375 C 246.960938 427.636719 248.640625 430.128906 250.355469 432.597656 C 257.214844 442.46875 264.640625 451.894531 272.480469 460.929688 C 280.316406 469.96875 288.542969 478.628906 297.054688 486.976562 C 305.566406 495.324219 314.359375 503.359375 323.371094 511.121094 C 332.375 518.890625 341.589844 526.402344 350.957031 533.703125 C 355.636719 537.351562 360.359375 540.949219 365.117188 544.492188 L 368.695312 547.140625 L 372.324219 549.769531 L 375.992188 552.335938 C 376.601562 552.769531 377.222656 553.179688 377.839844 553.597656 L 379.699219 554.847656 C 389.636719 561.46875 399.964844 567.472656 410.601562 572.832031 C 421.242188 578.1875 432.167969 582.929688 443.277344 587.144531 C 465.503906 595.570312 488.410156 601.867188 511.476562 607.160156 L 511.703125 606.253906 C 488.78125 600.511719 466.042969 593.855469 444.082031 585.117188 C 433.105469 580.753906 422.332031 575.886719 411.867188 570.417969 C 401.40625 564.941406 391.261719 558.863281 381.53125 552.179688 L 379.714844 550.917969 C 379.109375 550.5 378.5 550.082031 377.90625 549.644531 L 374.3125 547.058594 L 370.765625 544.410156 L 367.242188 541.722656 C 362.554688 538.128906 357.898438 534.484375 353.285156 530.792969 C 344.058594 523.410156 334.992188 515.820312 326.144531 507.992188 C 308.457031 492.328125 291.585938 475.699219 276.3125 457.679688 C 268.6875 448.667969 261.460938 439.316406 254.824219 429.558594 C 253.164062 427.117188 251.539062 424.65625 249.960938 422.167969 C 248.382812 419.675781 246.835938 417.164062 245.34375 414.621094 C 243.851562 412.082031 242.390625 409.507812 241 406.925781 C 240.828125 406.601562 240.640625 406.285156 240.484375 405.957031 L 240.007812 404.96875 C 239.6875 404.3125 239.375 403.644531 239.066406 402.976562 C 238.457031 401.640625 237.859375 400.296875 237.292969 398.941406 C 235.023438 393.523438 233.160156 387.933594 231.871094 382.207031 C 230.582031 376.488281 229.878906 370.636719 229.824219 364.777344 C 229.761719 358.914062 230.328125 353.050781 231.394531 347.277344 C 232.457031 341.5 234 335.808594 235.828125 330.214844 C 236.742188 327.417969 237.730469 324.640625 238.773438 321.882812 C 239.292969 320.507812 239.828125 319.132812 240.375 317.761719 L 241.199219 315.722656 C 241.328125 315.382812 241.484375 315.046875 241.640625 314.710938 L 242.097656 313.703125 C 244.5625 308.335938 246.894531 302.867188 249.09375 297.375 C 253.503906 286.378906 257.5 275.230469 261.4375 264.074219 C 263.40625 258.496094 265.367188 252.917969 267.363281 247.355469 L 268.863281 243.183594 L 270.386719 239.023438 C 271.402344 236.242188 272.417969 233.460938 273.40625 230.671875 C 277.367188 219.515625 281.050781 208.226562 283.796875 196.667969 C 285.179688 190.894531 286.300781 185.054688 287.140625 179.171875 C 287.554688 176.230469 287.894531 173.277344 288.160156 170.316406 C 288.429688 167.355469 288.59375 164.386719 288.703125 161.417969 C 288.8125 158.449219 288.816406 155.472656 288.761719 152.507812 L 288.667969 148.0625 C 288.625 146.578125 288.566406 145.097656 288.503906 143.617188 C 288.238281 137.695312 287.875 131.800781 287.667969 125.902344 C 287.464844 120.003906 287.398438 114.109375 287.6875 108.238281 C 287.976562 102.371094 288.605469 96.515625 289.910156 90.8125 C 291.214844 85.128906 293.214844 79.570312 296.335938 74.6875 C 297.894531 72.253906 299.730469 70.003906 301.835938 68.035156 C 303.9375 66.066406 306.300781 64.382812 308.847656 63.027344 C 309.480469 62.683594 310.132812 62.367188 310.777344 62.070312 L 311.773438 61.648438 C 312.113281 61.515625 312.445312 61.375 312.785156 61.25 C 314.144531 60.730469 315.523438 60.277344 316.921875 59.882812 C 319.71875 59.09375 322.585938 58.570312 325.480469 58.28125 C 331.273438 57.703125 337.148438 58.101562 342.886719 59.191406 C 348.632812 60.277344 354.242188 62.050781 359.671875 64.265625 C 365.105469 66.484375 370.355469 69.148438 375.425781 72.117188 C 380.496094 75.089844 385.390625 78.371094 390.113281 81.882812 C 394.835938 85.394531 399.382812 89.144531 403.75 93.089844 C 408.113281 97.035156 412.304688 101.183594 416.257812 105.535156 C 417.246094 106.625 418.222656 107.726562 419.175781 108.84375 C 419.652344 109.402344 420.128906 109.960938 420.597656 110.527344 L 421.3125 111.390625 L 422.035156 112.226562 C 423.964844 114.460938 425.796875 116.742188 427.574219 119.09375 L 428.242188 119.96875 L 428.898438 120.855469 L 430.210938 122.632812 C 431.0625 123.835938 431.933594 125.023438 432.765625 126.238281 L 434.023438 128.054688 L 435.265625 129.886719 C 436.097656 131.101562 436.894531 132.339844 437.707031 133.570312 C 440.9375 138.507812 444.027344 143.535156 447.03125 148.617188 C 453.03125 158.785156 458.675781 169.164062 464.039062 179.691406 C 469.398438 190.214844 474.507812 200.871094 479.351562 211.648438 C 481.777344 217.035156 484.144531 222.445312 486.445312 227.890625 C 488.742188 233.328125 491 238.789062 493.171875 244.285156 C 501.890625 266.242188 509.652344 288.585938 516.261719 311.269531 C 519.570312 322.609375 522.566406 334.039062 525.234375 345.542969 C 526.5625 351.292969 527.792969 357.070312 528.953125 362.855469 C 530.085938 368.652344 531.144531 374.460938 532.089844 380.285156 C 533.015625 386.117188 533.871094 391.957031 534.582031 397.8125 C 535.28125 403.671875 535.902344 409.542969 536.351562 415.421875 C 536.800781 421.304688 537.125 427.199219 537.347656 433.097656 C 537.558594 438.996094 537.667969 444.898438 537.679688 450.804688 C 537.707031 474.417969 536.105469 498.027344 533.242188 521.472656 C 530.367188 544.921875 526.238281 568.210938 521.230469 591.304688 C 520.921875 592.75 520.601562 594.191406 520.277344 595.632812 L 519.796875 597.796875 L 519.675781 598.335938 C 519.636719 598.511719 519.589844 598.6875 519.550781 598.921875 C 519.515625 599.144531 519.484375 599.378906 519.492188 599.648438 C 519.503906 599.917969 519.527344 600.234375 519.726562 600.601562 C 519.910156 600.972656 520.351562 601.289062 520.714844 601.367188 C 521.082031 601.460938 521.375 601.4375 521.628906 601.402344 C 522.136719 601.324219 522.535156 601.167969 522.914062 601.007812 C 523.671875 600.675781 524.332031 600.28125 524.980469 599.867188 C 526.269531 599.042969 527.46875 598.136719 528.640625 597.207031 C 530.984375 595.34375 533.210938 593.375 535.402344 591.363281 C 537.585938 589.351562 539.726562 587.296875 541.839844 585.214844 C 546.058594 581.046875 550.164062 576.773438 554.199219 572.4375 C 558.234375 568.101562 562.199219 563.703125 566.109375 559.253906 C 573.925781 550.355469 581.523438 541.269531 588.9375 532.039062 C 596.351562 522.808594 603.585938 513.429688 610.640625 503.921875 C 624.746094 484.90625 638.152344 465.367188 650.757812 445.324219 C 663.359375 425.273438 675.15625 404.710938 685.882812 383.59375 C 696.609375 362.476562 706.253906 340.792969 714.351562 318.519531 C 718.390625 307.382812 722.039062 296.097656 725.1875 284.671875 C 728.335938 273.246094 730.984375 261.675781 733.007812 249.992188 C 735.03125 238.308594 736.417969 226.511719 737.011719 214.660156 C 737.289062 208.761719 737.386719 202.824219 737.261719 196.890625 C 737.195312 193.925781 737.078125 190.960938 736.902344 188 C 736.71875 185.039062 736.5 182.078125 736.175781 179.121094 C 735.519531 173.21875 734.585938 167.359375 733.5 161.527344 C 732.40625 155.699219 731.148438 149.90625 729.734375 144.148438 C 726.898438 132.636719 723.460938 121.269531 719.265625 110.171875 C 715.0625 99.082031 710.113281 88.242188 703.996094 78.046875 C 700.9375 72.953125 697.574219 68.03125 693.835938 63.398438 C 690.101562 58.769531 685.964844 54.4375 681.378906 50.613281 C 676.796875 46.796875 671.738281 43.507812 666.273438 41.066406 C 664.90625 40.449219 663.515625 39.894531 662.105469 39.394531 C 661.753906 39.265625 661.402344 39.148438 661.046875 39.03125 C 660.691406 38.910156 660.335938 38.792969 659.96875 38.6875 L 659.421875 38.527344 L 658.867188 38.390625 C 658.683594 38.34375 658.5 38.296875 658.3125 38.253906 L 657.75 38.144531 C 656.253906 37.859375 654.71875 37.71875 653.1875 37.789062 C 651.660156 37.859375 650.132812 38.097656 648.664062 38.53125 C 647.195312 38.96875 645.78125 39.566406 644.449219 40.304688 C 643.121094 41.042969 641.867188 41.910156 640.691406 42.859375 C 638.34375 44.769531 636.308594 47.007812 634.488281 49.382812 C 632.667969 51.765625 631.066406 54.292969 629.605469 56.886719 C 628.144531 59.484375 626.824219 62.15625 625.605469 64.867188 C 624.390625 67.578125 623.269531 70.332031 622.226562 73.109375 C 621.707031 74.496094 621.199219 75.890625 620.707031 77.292969 L 619.976562 79.398438 L 619.796875 79.9375 C 619.738281 80.113281 619.695312 80.296875 619.644531 80.476562 L 619.347656 81.554688 C 617.761719 87.242188 616.058594 92.894531 613.925781 98.378906 C 611.796875 103.855469 609.214844 109.175781 605.824219 113.953125 C 604.132812 116.339844 602.238281 118.578125 600.148438 120.621094 C 598.054688 122.65625 595.757812 124.484375 593.308594 126.078125 C 590.859375 127.671875 588.257812 129.03125 585.558594 130.167969 L 584.542969 130.582031 L 583.519531 130.980469 L 581.441406 131.742188 L 579.355469 132.515625 L 577.28125 133.332031 C 576.589844 133.597656 575.910156 133.898438 575.222656 134.183594 C 574.539062 134.472656 573.855469 134.753906 573.179688 135.066406 L 571.148438 135.980469 L 569.140625 136.945312 C 566.476562 138.257812 563.851562 139.652344 561.289062 141.15625 C 556.179688 144.183594 551.277344 147.578125 546.734375 151.417969 C 542.1875 155.242188 537.964844 159.460938 534.164062 164.027344 C 526.554688 173.160156 520.625 183.6875 516.769531 194.9375 C 515.816406 197.75 514.96875 200.605469 514.289062 203.5 C 513.9375 204.941406 513.640625 206.398438 513.359375 207.859375 C 513.097656 209.324219 512.851562 210.792969 512.664062 212.265625 C 512.28125 215.214844 512.0625 218.191406 512.054688 221.171875 C 512.066406 224.148438 512.269531 227.144531 512.910156 230.085938 Z M 513.824219 229.878906 " fill-opacity="1" fill-rule="nonzero"/></g></g></g></g></g></g></svg>